<svg width="109" height="18" viewBox="0 0 109 18" fill="none" xmlns="http://www.w3.org/2000/svg">
<path fill-rule="evenodd" clip-rule="evenodd" d="M104.458 2.65853V17.4498H102.348V2.65853H98.5971V1.01506H108.209V2.65853H104.458ZM96.3347 11.3572C95.9674 11.819 95.5063 12.1477 94.9514 12.3433C94.3965 12.539 93.7362 12.6368 92.9703 12.6368C92.6108 12.6368 92.2045 12.6133 91.7512 12.5664C91.2979 12.5194 90.9228 12.4646 90.6258 12.402V17.4498H88.5158V1.24984C89.1097 1.07766 89.7076 0.95636 90.3093 0.885926C90.9111 0.815491 91.5636 0.780273 92.267 0.780273C93.2048 0.780273 94.0019 0.8781 94.6583 1.07375C95.3148 1.2694 95.8462 1.59419 96.2526 2.0481C96.659 2.50201 96.9559 3.10462 97.1435 3.85593C97.3311 4.60723 97.4248 5.53853 97.4248 6.64984C97.4248 7.79245 97.335 8.74723 97.1552 9.51419C96.9755 10.2811 96.7019 10.8955 96.3347 11.3572ZM95.139 4.5368C95.0217 3.97332 94.8381 3.52723 94.588 3.19853C94.3379 2.86984 94.0214 2.63897 93.6385 2.50593C93.2556 2.37288 92.7984 2.30636 92.267 2.30636H90.6258V10.9933H92.267C92.7984 10.9933 93.2556 10.9268 93.6385 10.7938C94.0214 10.6607 94.3379 10.4298 94.588 10.1011C94.8381 9.77245 95.0217 9.32636 95.139 8.76288C95.2562 8.1994 95.3148 7.49506 95.3148 6.64984C95.3148 5.80462 95.2562 5.10027 95.139 4.5368ZM83.2407 13.2238H78.5518L77.4968 17.4498H75.3867L79.3724 1.01506H82.4202L86.4058 17.4498H84.2958L83.2407 13.2238ZM80.9431 3.36288H80.8494L78.9035 11.5803H82.8891L80.9431 3.36288ZM70.815 5.24114H70.6978L67.2983 15.3368H65.1883L61.7888 5.24114H61.6716L60.9682 17.4498H58.8582L59.796 1.01506H62.3749L66.1964 12.2846H66.2902L70.1117 1.01506H72.6906L73.6284 17.4498H71.5184L70.815 5.24114ZM55.0601 15.9238C54.6225 16.5655 54.095 17.0194 53.4776 17.2855C52.8602 17.5516 52.153 17.6846 51.3559 17.6846C50.5587 17.6846 49.8515 17.5516 49.2341 17.2855C48.6167 17.0194 48.0892 16.5655 47.6516 15.9238C47.2139 15.282 46.8818 14.4172 46.6552 13.3294C46.4285 12.2416 46.3152 10.8759 46.3152 9.23245C46.3152 7.58897 46.4285 6.22332 46.6552 5.13549C46.8818 4.04766 47.2139 3.18288 47.6516 2.54114C48.0892 1.8994 48.6167 1.44549 49.2341 1.1794C49.8515 0.913317 50.5587 0.780273 51.3559 0.780273C52.153 0.780273 52.8602 0.913317 53.4776 1.1794C54.095 1.44549 54.6225 1.8994 55.0601 2.54114C55.4978 3.18288 55.8299 4.04766 56.0565 5.13549C56.2832 6.22332 56.3965 7.58897 56.3965 9.23245C56.3965 10.8759 56.2832 12.2416 56.0565 13.3294C55.8299 14.4172 55.4978 15.282 55.0601 15.9238ZM54.0403 5.75766C53.8762 4.84984 53.6613 4.12984 53.3955 3.59766C53.1298 3.06549 52.8172 2.69766 52.4578 2.49419C52.0983 2.29071 51.731 2.18897 51.3559 2.18897C50.9807 2.18897 50.6134 2.29071 50.2539 2.49419C49.8945 2.69766 49.5819 3.06549 49.3162 3.59766C49.0504 4.12984 48.8355 4.84984 48.6714 5.75766C48.5073 6.66549 48.4253 7.82375 48.4253 9.23245C48.4253 10.6411 48.5073 11.7994 48.6714 12.7072C48.8355 13.6151 49.0504 14.3351 49.3162 14.8672C49.5819 15.3994 49.8945 15.7672 50.2539 15.9707C50.6134 16.1742 50.9807 16.2759 51.3559 16.2759C51.731 16.2759 52.0983 16.1742 52.4578 15.9707C52.8172 15.7672 53.1298 15.3994 53.3955 14.8672C53.6613 14.3351 53.8762 13.6151 54.0403 12.7072C54.2044 11.7994 54.2864 10.6411 54.2864 9.23245C54.2864 7.82375 54.2044 6.66549 54.0403 5.75766ZM41.3918 9.9368H36.4684V17.4498H34.3584V1.01506H36.4684V8.29332H41.3918V1.01506H43.5019V17.4498H41.3918V9.9368ZM30.2563 17.4498L27.3257 10.4064L24.3951 17.4498H22.2851L25.8018 8.99766L22.6368 1.01506H24.7468L27.3257 7.58897L29.9047 1.01506H32.0147L28.8497 8.99766L32.3664 17.4498H30.2563ZM13.0244 1.01506H20.9957V2.65853H15.1345V8.05853H20.2923V9.70201H15.1345V15.8064H20.9957V17.4498H13.0244V1.01506ZM7.39769 17.4498H5.28766V2.65853H1.5365V1.01506H11.1489V2.65853H7.39769V17.4498Z" fill="white"/>
</svg>
