<svg width="21" height="21" viewBox="0 0 21 21" fill="none" xmlns="http://www.w3.org/2000/svg">
<g opacity="0.3">
<path fill-rule="evenodd" clip-rule="evenodd" d="M8.48224 16.3855C4.07026 16.3855 0.493652 12.8038 0.493652 8.3855C0.493652 3.96722 4.07026 0.385498 8.48224 0.385498C12.8942 0.385498 16.4708 3.96722 16.4708 8.3855C16.4708 10.2342 15.8446 11.9365 14.7931 13.2911L20.1726 18.6784L18.7604 20.0926L13.3809 14.7054C12.0281 15.7584 10.3283 16.3855 8.48224 16.3855ZM14.4737 8.3855C14.4737 11.6992 11.7912 14.3855 8.48224 14.3855C5.17326 14.3855 2.4908 11.6992 2.4908 8.3855C2.4908 5.07179 5.17326 2.3855 8.48224 2.3855C11.7912 2.3855 14.4737 5.07179 14.4737 8.3855Z" fill="white"/>
</g>
</svg>
